<svg width="32" height="32" viewBox="0 0 32 32" fill="none" xmlns="http://www.w3.org/2000/svg">
<path d="M16 0C24.8375 0 32 7.1625 32 16C32 24.8375 24.8375 32 16 32C7.1625 32 0 24.8375 0 16C0 7.1625 7.1625 0 16 0Z" fill="#0052FF"/>
<path d="M16.1022 21.7266C12.996 21.7266 10.4772 19.2109 10.4772 16.1016C10.4772 12.9922 12.996 10.4766 16.1022 10.4766C18.8866 10.4766 21.1991 12.5078 21.6429 15.1641H27.3085C26.8304 9.38906 21.996 4.85156 16.0991 4.85156C9.88662 4.85156 4.84912 9.88906 4.84912 16.1016C4.84912 22.3141 9.88662 27.3516 16.0991 27.3516C21.996 27.3516 26.8304 22.8141 27.3085 17.0391H21.6397C21.1929 19.6953 18.8866 21.7266 16.1022 21.7266Z" fill="white"/>
</svg>
