<svg width="32" height="32" viewBox="0 0 32 32" fill="none" xmlns="http://www.w3.org/2000/svg">
<g id="metamask" clip-path="url(#clip0_2570_15481)">
<path id="Vector" d="M30.4202 1L17.9133 10.2516L20.2453 4.79774L30.4202 1Z" fill="#E17726" stroke="#E17726" stroke-width="0.25" stroke-linecap="round" stroke-linejoin="round"/>
<path id="Vector_2" d="M1.5801 1L13.9727 10.3278L11.755 4.80726L1.5801 1ZM25.918 22.4444L22.5866 27.5271L29.7157 29.4878L31.7526 22.5586L25.918 22.4444ZM0.25708 22.5586L2.28444 29.4878L9.3945 27.5271L6.08218 22.4444L0.25708 22.5586Z" fill="#E27625" stroke="#E27625" stroke-width="0.25" stroke-linecap="round" stroke-linejoin="round"/>
<path id="Vector_3" d="M9.01347 13.861L7.03369 16.8497L14.0771 17.1733L13.8487 9.58737L9.01347 13.8705V13.861ZM22.9861 13.8705L18.0747 9.49219L17.9129 17.1733L24.9564 16.8497L22.9861 13.8705ZM9.39419 27.5291L13.6678 25.4732L9.99383 22.6177L9.39419 27.5291ZM18.3412 25.4636L22.5863 27.5291L22.0153 22.6082L18.3412 25.4636Z" fill="#E27625" stroke="#E27625" stroke-width="0.25" stroke-linecap="round" stroke-linejoin="round"/>
<path id="Vector_4" d="M22.5867 27.5286L18.3416 25.4727L18.6842 28.2329L18.6462 29.4037L22.5867 27.5286ZM9.39453 27.5286L13.3541 29.4037L13.3255 28.2329L13.6682 25.4727L9.39453 27.5286Z" fill="#D5BFB2" stroke="#D5BFB2" stroke-width="0.25" stroke-linecap="round" stroke-linejoin="round"/>
<path id="Vector_5" d="M13.4204 20.7773L9.89868 19.7494L12.3924 18.6072L13.4299 20.7773H13.4204ZM18.5697 20.7773L19.6167 18.5977L22.12 19.7398L18.5697 20.7868V20.7773Z" fill="#233447" stroke="#233447" stroke-width="0.25" stroke-linecap="round" stroke-linejoin="round"/>
<path id="Vector_6" d="M9.39435 27.527L10.013 22.4443L6.08203 22.5585L9.39435 27.527ZM21.9869 22.4443L22.5865 27.527L25.9178 22.5585L21.9869 22.4443ZM24.966 16.8477L17.9226 17.1713L18.5698 20.7882L19.6168 18.599L22.1201 19.7412L24.966 16.8477ZM9.89881 19.7507L12.3926 18.6085L13.43 20.7787L14.0868 17.1618L7.04336 16.8477L9.89881 19.7507Z" fill="#CC6228" stroke="#CC6228" stroke-width="0.25" stroke-linecap="round" stroke-linejoin="round"/>
<path id="Vector_7" d="M7.04321 16.8477L9.99384 22.6061L9.89866 19.7507L7.04321 16.8477ZM22.12 19.7507L22.0057 22.6061L24.9564 16.8477L22.12 19.7507ZM14.0866 17.1713L13.4204 20.7882L14.258 25.0523L14.4483 19.4271L14.0866 17.1713ZM17.9129 17.1713L17.5703 19.4176L17.7416 25.0523L18.5697 20.7787L17.9129 17.1618V17.1713Z" fill="#E27525" stroke="#E27525" stroke-width="0.25" stroke-linecap="round" stroke-linejoin="round"/>
<path id="Vector_8" d="M18.5697 20.778L17.7416 25.0516L18.3413 25.4704L22.0058 22.615L22.12 19.75L18.5697 20.778ZM9.89868 19.75L9.99386 22.6054L13.6679 25.4609L14.258 25.0516L13.4299 20.778L9.88916 19.75H9.89868Z" fill="#F5841F" stroke="#F5841F" stroke-width="0.25" stroke-linecap="round" stroke-linejoin="round"/>
<path id="Vector_9" d="M18.6557 29.4024L18.6842 28.2317L18.3606 27.9652H13.6396L13.3255 28.2317L13.3541 29.4024L9.39453 27.5273L10.7842 28.6695L13.592 30.6017H18.3987L21.2161 28.66L22.5867 27.5273L18.6462 29.4024H18.6557Z" fill="#C0AC9D" stroke="#C0AC9D" stroke-width="0.25" stroke-linecap="round" stroke-linejoin="round"/>
<path id="Vector_10" d="M18.3415 25.4601L17.7419 25.0508H14.2582L13.6681 25.4696L13.3254 28.2298L13.6395 27.9633H18.3605L18.6842 28.2298L18.3415 25.4696V25.4601Z" fill="#161616" stroke="#161616" stroke-width="0.25" stroke-linecap="round" stroke-linejoin="round"/>
<path id="Vector_11" d="M30.953 10.8513L32 5.75907L30.42 1L18.3319 9.94705L22.9863 13.859L29.5538 15.7722L31.0006 14.0874L30.3724 13.6306L31.3718 12.7168L30.6104 12.1267L31.6098 11.3653L30.9435 10.8513H30.953ZM0 5.74955L1.06603 10.8513L0.380726 11.3557L1.39917 12.1172L0.637716 12.7168L1.6276 13.6306L0.999405 14.0874L2.44616 15.7722L9.01368 13.8685L13.6681 9.93754L1.58001 1L0 5.74955Z" fill="#763E1A" stroke="#763E1A" stroke-width="0.25" stroke-linecap="round" stroke-linejoin="round"/>
<path id="Vector_12" d="M29.5539 15.7713L22.9864 13.8677L24.9662 16.8468L22.0156 22.6053L25.918 22.5577H31.7526L29.5539 15.7713ZM9.01377 13.8581L2.44625 15.7713L0.25708 22.5577H6.0917L9.99414 22.6053L7.04352 16.8468L9.02329 13.8581H9.01377ZM17.9132 17.1705L18.3416 9.93667L20.2452 4.79688H11.755L13.6586 9.93667L14.0869 17.1705L14.2488 19.4358V25.0515H17.7419L17.7609 19.4358L17.9132 17.1705Z" fill="#F5841F" stroke="#F5841F" stroke-width="0.25" stroke-linecap="round" stroke-linejoin="round"/>
</g>
<defs>
<clipPath id="clip0_2570_15481">
<rect width="32" height="32" fill="white"/>
</clipPath>
</defs>
</svg>
