<svg width="56" height="56" viewBox="0 0 56 56" fill="none" xmlns="http://www.w3.org/2000/svg">
<path d="M28.3 51.2C31 51.2 33.3 49.6 34.4 47.2C34.7 46.6 34.2 46 33.6 46H23C22.4 46 22 46.6 22.2 47.2C23.3 49.6 25.6 51.2 28.3 51.2Z" fill="url(#paint0_linear_3827_17564)"/>
<path d="M44.5001 39.6992C42.8001 39.6992 41.4001 38.2992 41.4001 36.5992V25.2992C41.4001 19.1992 37.2001 13.9992 31.5001 12.5992C31.3001 10.9992 29.9001 9.69922 28.2001 9.69922C26.5001 9.69922 25.1001 10.9992 24.9001 12.5992C19.8001 13.8992 15.9001 18.1992 15.2001 23.5992C15.2001 23.6992 15.2001 23.7992 15.2001 23.7992C15.2001 23.8992 15.2001 23.9992 15.2001 24.0992C15.2001 24.1992 15.2001 24.2992 15.2001 24.3992C15.2001 24.4992 15.2001 24.5992 15.2001 24.6992C15.2001 24.8992 15.2001 25.0992 15.2001 25.1992C15.2001 25.1992 15.2001 25.1992 15.2001 25.2992V36.5992C15.2001 38.2992 13.8001 39.6992 12.1001 39.6992C11.3001 39.6992 10.6001 40.2992 10.6001 41.1992C10.6001 41.9992 11.3001 42.6992 12.1001 42.6992H44.5001C45.3001 42.6992 46.0001 41.9992 46.0001 41.1992C46.0001 40.2992 45.3001 39.6992 44.5001 39.6992Z" fill="url(#paint1_linear_3827_17564)"/>
<path d="M37.6999 10.3008C41.2999 11.1008 44.0999 14.2008 44.4999 17.9008C44.4999 18.3008 44.8999 18.6008 45.2999 18.6008C45.4999 18.6008 45.6999 18.5008 45.7999 18.3008C45.8999 18.1008 45.9999 17.9008 45.9999 17.8008C45.7999 15.6008 44.8999 13.6008 43.4999 12.0008C42.0999 10.4008 40.1999 9.30078 38.0999 8.80078C37.9999 8.80078 37.9999 8.80078 37.8999 8.80078C37.5999 8.80078 37.1999 9.00078 37.1999 9.40078C36.9999 9.80078 37.2999 10.2008 37.6999 10.3008Z" fill="url(#paint2_linear_3827_17564)"/>
<path d="M38.6001 5.5C44.3001 6.7 48.6001 11.6 49.1001 17.4C49.1001 17.8 49.5001 18.1 49.9001 18.1C50.1001 18.1 50.3001 18 50.4001 17.8C50.5001 17.6 50.6001 17.4 50.6001 17.3C50.3001 14.1 49.0001 11.1 46.9001 8.7C44.8001 6.3 42.0001 4.7 38.9001 4C38.8001 4 38.8001 4 38.7001 4C38.4001 4 38.0001 4.2 38.0001 4.6C37.9001 5 38.1001 5.4 38.6001 5.5Z" fill="url(#paint3_linear_3827_17564)"/>
<path d="M18.9 10.3008C19.3 10.2008 19.6 9.80078 19.5 9.40078C19.4 9.00078 19.1 8.80078 18.8 8.80078C18.7 8.80078 18.7 8.80078 18.6 8.80078C16.5 9.30078 14.6 10.3008 13.2 12.0008C11.7 13.6008 10.9 15.6008 10.7 17.8008C10.7 18.0008 10.7 18.2008 10.9 18.3008C11.1 18.4008 11.2 18.6008 11.4 18.6008C11.8 18.6008 12.2 18.3008 12.2 17.9008C12.5 14.2008 15.3 11.1008 18.9 10.3008Z" fill="url(#paint4_linear_3827_17564)"/>
<path d="M18.1 5.5C18.5 5.4 18.8 5 18.7 4.6C18.6 4.2 18.3 4 17.9 4C17.8 4 17.8 4 17.7 4C14.6 4.7 11.8 6.3 9.7 8.7C7.6 11.1 6.3 14.1 6 17.3C6 17.5 6 17.7 6.2 17.8C6.4 17.9 6.5 18 6.7 18C7.1 18 7.5 17.7 7.5 17.3C8.1 11.6 12.4 6.7 18.1 5.5Z" fill="url(#paint5_linear_3827_17564)"/>
<defs>
<linearGradient id="paint0_linear_3827_17564" x1="35.4243" y1="34.8942" x2="26.7747" y2="49.5975" gradientUnits="userSpaceOnUse">
<stop stop-color="#FF94A6"/>
<stop offset="0.32" stop-color="#E03DC1"/>
<stop offset="1" stop-color="#8247E5"/>
</linearGradient>
<linearGradient id="paint1_linear_3827_17564" x1="39.5676" y1="18.6193" x2="21.3217" y2="44.549" gradientUnits="userSpaceOnUse">
<stop stop-color="#FF94A6"/>
<stop offset="0.32" stop-color="#E03DC1"/>
<stop offset="1" stop-color="#8247E5"/>
</linearGradient>
<linearGradient id="paint2_linear_3827_17564" x1="54.2604" y1="5.30368" x2="9.95959" y2="34.7102" gradientUnits="userSpaceOnUse">
<stop stop-color="#FF94A6"/>
<stop offset="0.32" stop-color="#E03DC1"/>
<stop offset="1" stop-color="#8247E5"/>
</linearGradient>
<linearGradient id="paint3_linear_3827_17564" x1="53.8466" y1="4.6765" x2="9.5436" y2="34.0831" gradientUnits="userSpaceOnUse">
<stop stop-color="#FF94A6"/>
<stop offset="0.32" stop-color="#E03DC1"/>
<stop offset="1" stop-color="#8247E5"/>
</linearGradient>
<linearGradient id="paint4_linear_3827_17564" x1="45.9892" y1="-7.15962" x2="1.68615" y2="22.2469" gradientUnits="userSpaceOnUse">
<stop stop-color="#FF94A6"/>
<stop offset="0.32" stop-color="#E03DC1"/>
<stop offset="1" stop-color="#8247E5"/>
</linearGradient>
<linearGradient id="paint5_linear_3827_17564" x1="43.8134" y1="-10.4378" x2="-0.470398" y2="18.956" gradientUnits="userSpaceOnUse">
<stop stop-color="#FF94A6"/>
<stop offset="0.32" stop-color="#E03DC1"/>
<stop offset="1" stop-color="#8247E5"/>
</linearGradient>
</defs>
</svg>
